<mxfile host="Electron" modified="2023-07-17T09:54:27.543Z" agent="Mozilla/5.0 (Windows NT 6.1; Win64; x64) AppleWebKit/537.36 (KHTML, like Gecko) draw.io/21.1.2 Chrome/106.0.5249.199 Electron/21.4.3 Safari/537.36" etag="c3f4Zg2G2ekdyLkF0Kj-" version="21.1.2" type="device">
  <diagram name="ページ1" id="HnClHyY8cUkIvw8qRZSE">
    <mxGraphModel dx="1434" dy="791" grid="1" gridSize="10" guides="1" tooltips="1" connect="1" arrows="1" fold="1" page="1" pageScale="1" pageWidth="1169" pageHeight="827" math="0" shadow="0">
      <root>
        <mxCell id="0" />
        <mxCell id="1" parent="0" />
        <mxCell id="-aeHt35YVdPcneIBjBqU-1" value="&amp;nbsp; Metal Shader&lt;br style=&quot;font-size: 14px;&quot;&gt;" style="rounded=0;whiteSpace=wrap;html=1;align=left;verticalAlign=top;fontStyle=1;fontSize=14;fillColor=#fff2cc;strokeColor=#d6b656;" vertex="1" parent="1">
          <mxGeometry x="20" y="130" width="700" height="230" as="geometry" />
        </mxCell>
        <mxCell id="-aeHt35YVdPcneIBjBqU-2" value="&lt;div style=&quot;font-size: 14px;&quot;&gt;&lt;span style=&quot;font-size: 14px;&quot;&gt;&lt;font color=&quot;#0066cc&quot;&gt;vertex &lt;/font&gt;ShaderIO vertexShader(constant float4 *positions [[ &lt;font color=&quot;#0066cc&quot;&gt;buffer&lt;/font&gt;(&lt;/span&gt;&lt;font color=&quot;#cc0000&quot; style=&quot;font-size: 14px;&quot;&gt;0&lt;/font&gt;&lt;span style=&quot;font-size: 14px;&quot;&gt;) ]],&lt;/span&gt;&lt;/div&gt;&lt;div style=&quot;font-size: 14px;&quot;&gt;&amp;nbsp; &amp;nbsp; &amp;nbsp; &amp;nbsp; &amp;nbsp; &amp;nbsp; &amp;nbsp; &amp;nbsp; &amp;nbsp; &amp;nbsp; &amp;nbsp; &amp;nbsp; &amp;nbsp; &amp;nbsp; &amp;nbsp;constant float2 *texCoords [[ &lt;font color=&quot;#0066cc&quot;&gt;buffer&lt;/font&gt;(&lt;font style=&quot;font-size: 14px;&quot; color=&quot;#cc0000&quot;&gt;1&lt;/font&gt;) ]],&lt;/div&gt;&lt;div style=&quot;font-size: 14px;&quot;&gt;&amp;nbsp; &amp;nbsp; &amp;nbsp; &amp;nbsp; &amp;nbsp; &amp;nbsp; &amp;nbsp; &amp;nbsp; &amp;nbsp; &amp;nbsp; &amp;nbsp; &amp;nbsp; &amp;nbsp; &amp;nbsp; &amp;nbsp; &amp;nbsp; &amp;nbsp; &amp;nbsp; &amp;nbsp; uint&amp;nbsp; &amp;nbsp; vid&amp;nbsp; &amp;nbsp; &amp;nbsp; &amp;nbsp;[[ vertex_id ]])&lt;/div&gt;&lt;div style=&quot;font-size: 14px;&quot;&gt;&lt;br&gt;&lt;/div&gt;&lt;div style=&quot;font-size: 14px;&quot;&gt;&lt;br&gt;&lt;/div&gt;&lt;div style=&quot;font-size: 14px;&quot;&gt;&lt;br&gt;&lt;/div&gt;&lt;div style=&quot;font-size: 14px;&quot;&gt;&lt;div&gt;&lt;font color=&quot;#00cc00&quot;&gt;fragment &lt;/font&gt;float4 fragmentShader(ShaderIO&amp;nbsp; &amp;nbsp; &amp;nbsp; &amp;nbsp;in&amp;nbsp; &amp;nbsp; &amp;nbsp; [[ stage_in ]],&lt;/div&gt;&lt;div&gt;&amp;nbsp; &amp;nbsp; &amp;nbsp; &amp;nbsp; &amp;nbsp; &amp;nbsp; &amp;nbsp; &amp;nbsp; &amp;nbsp; &amp;nbsp; &amp;nbsp; &amp;nbsp; &amp;nbsp; &amp;nbsp; &amp;nbsp; &amp;nbsp;texture2d&amp;lt;float&amp;gt; texture [[ &lt;font color=&quot;#00cc00&quot;&gt;texture&lt;/font&gt;(&lt;font color=&quot;#cc0000&quot;&gt;0&lt;/font&gt;) ]])&lt;/div&gt;&lt;/div&gt;" style="text;html=1;align=left;verticalAlign=middle;resizable=0;points=[];autosize=1;strokeColor=none;fillColor=none;fontFamily=Courier New;fontStyle=1;fontSize=14;" vertex="1" parent="1">
          <mxGeometry x="60" y="160" width="640" height="150" as="geometry" />
        </mxCell>
        <mxCell id="-aeHt35YVdPcneIBjBqU-3" value="&lt;div style=&quot;font-size: 14px;&quot;&gt;&lt;div&gt;func draw(in view: MTKView) {&lt;/div&gt;&lt;div style=&quot;font-size: 14px;&quot;&gt;&lt;font style=&quot;font-size: 14px;&quot;&gt;&amp;nbsp; &amp;nbsp; ...&lt;/font&gt;&lt;/div&gt;&lt;div style=&quot;font-size: 14px;&quot;&gt;&lt;font style=&quot;font-size: 14px;&quot;&gt;&amp;nbsp; &amp;nbsp; renderEncoder.&lt;font color=&quot;#0066cc&quot;&gt;setVertexBuffer&lt;/font&gt;(&lt;font style=&quot;font-size: 14px;&quot;&gt;vertexBuffer&lt;/font&gt;, offset: 0, index: &lt;font style=&quot;font-size: 14px;&quot; color=&quot;#cc0000&quot;&gt;0&lt;/font&gt;)&lt;/font&gt;&lt;/div&gt;&lt;div style=&quot;font-size: 14px;&quot;&gt;&lt;font style=&quot;font-size: 14px;&quot;&gt;&amp;nbsp; &amp;nbsp; renderEncoder.&lt;font color=&quot;#0066cc&quot;&gt;setVertexBuffer&lt;/font&gt;(&lt;font style=&quot;font-size: 14px;&quot;&gt;texCoordBuffer&lt;/font&gt;, offset: 0, index: &lt;font color=&quot;#cc0000&quot; style=&quot;font-size: 14px;&quot;&gt;1&lt;/font&gt;)&lt;/font&gt;&lt;/div&gt;&lt;/div&gt;&lt;div style=&quot;font-size: 14px;&quot;&gt;&amp;nbsp; &amp;nbsp; renderEncoder.&lt;font color=&quot;#00cc00&quot;&gt;setFragmentTexture&lt;/font&gt;(texture, index: &lt;font color=&quot;#cc0000&quot; style=&quot;font-size: 14px;&quot;&gt;0&lt;/font&gt;)&lt;br style=&quot;font-size: 14px;&quot;&gt;&lt;/div&gt;&lt;div style=&quot;font-size: 14px;&quot;&gt;&amp;nbsp; &amp;nbsp; ...&lt;/div&gt;&lt;div style=&quot;font-size: 14px;&quot;&gt;}&lt;/div&gt;" style="text;html=1;align=left;verticalAlign=middle;resizable=0;points=[];autosize=1;strokeColor=none;fillColor=none;fontFamily=Courier New;fontStyle=1;fontSize=14;" vertex="1" parent="1">
          <mxGeometry x="40" width="610" height="130" as="geometry" />
        </mxCell>
        <mxCell id="-aeHt35YVdPcneIBjBqU-4" value="" style="rounded=0;whiteSpace=wrap;html=1;fillColor=none;strokeColor=none;" vertex="1" parent="1">
          <mxGeometry width="40" height="40" as="geometry" />
        </mxCell>
        <mxCell id="-aeHt35YVdPcneIBjBqU-5" value="" style="rounded=0;whiteSpace=wrap;html=1;fillColor=none;strokeColor=none;" vertex="1" parent="1">
          <mxGeometry x="1120" width="40" height="40" as="geometry" />
        </mxCell>
        <mxCell id="-aeHt35YVdPcneIBjBqU-6" value="" style="rounded=0;whiteSpace=wrap;html=1;fillColor=none;strokeColor=none;" vertex="1" parent="1">
          <mxGeometry x="636" y="166" width="20" height="20" as="geometry" />
        </mxCell>
        <mxCell id="-aeHt35YVdPcneIBjBqU-7" value="" style="rounded=0;whiteSpace=wrap;html=1;fillColor=none;strokeColor=none;" vertex="1" parent="1">
          <mxGeometry x="636" y="186" width="20" height="20" as="geometry" />
        </mxCell>
        <mxCell id="-aeHt35YVdPcneIBjBqU-8" style="edgeStyle=orthogonalEdgeStyle;shape=connector;curved=1;rounded=0;orthogonalLoop=1;jettySize=auto;html=1;entryX=1;entryY=0.5;entryDx=0;entryDy=0;labelBackgroundColor=default;strokeColor=#0066CC;fontFamily=Helvetica;fontSize=11;fontColor=default;endArrow=classic;strokeWidth=2;" edge="1" parent="1" source="-aeHt35YVdPcneIBjBqU-9" target="-aeHt35YVdPcneIBjBqU-7">
          <mxGeometry relative="1" as="geometry">
            <Array as="points">
              <mxPoint x="710" y="65" />
              <mxPoint x="710" y="196" />
            </Array>
          </mxGeometry>
        </mxCell>
        <mxCell id="-aeHt35YVdPcneIBjBqU-9" value="" style="rounded=0;whiteSpace=wrap;html=1;fillColor=none;strokeColor=none;" vertex="1" parent="1">
          <mxGeometry x="614" y="55" width="20" height="20" as="geometry" />
        </mxCell>
        <mxCell id="-aeHt35YVdPcneIBjBqU-10" style="edgeStyle=orthogonalEdgeStyle;rounded=0;orthogonalLoop=1;jettySize=auto;html=1;entryX=1;entryY=0.5;entryDx=0;entryDy=0;curved=1;strokeColor=#0066CC;strokeWidth=2;" edge="1" parent="1" source="-aeHt35YVdPcneIBjBqU-11" target="-aeHt35YVdPcneIBjBqU-6">
          <mxGeometry relative="1" as="geometry">
            <Array as="points">
              <mxPoint x="690" y="47" />
              <mxPoint x="690" y="176" />
            </Array>
          </mxGeometry>
        </mxCell>
        <mxCell id="-aeHt35YVdPcneIBjBqU-11" value="" style="rounded=0;whiteSpace=wrap;html=1;fillColor=none;strokeColor=none;" vertex="1" parent="1">
          <mxGeometry x="594" y="37" width="20" height="20" as="geometry" />
        </mxCell>
        <mxCell id="-aeHt35YVdPcneIBjBqU-12" style="edgeStyle=orthogonalEdgeStyle;rounded=0;orthogonalLoop=1;jettySize=auto;html=1;curved=1;strokeColor=#00CC00;strokeWidth=2;entryX=1;entryY=0.5;entryDx=0;entryDy=0;" edge="1" parent="1" source="-aeHt35YVdPcneIBjBqU-13" target="-aeHt35YVdPcneIBjBqU-14">
          <mxGeometry relative="1" as="geometry">
            <mxPoint x="770" y="280" as="targetPoint" />
            <Array as="points">
              <mxPoint x="740" y="80" />
              <mxPoint x="740" y="293" />
            </Array>
          </mxGeometry>
        </mxCell>
        <mxCell id="-aeHt35YVdPcneIBjBqU-13" value="" style="rounded=0;whiteSpace=wrap;html=1;fillColor=none;strokeColor=none;" vertex="1" parent="1">
          <mxGeometry x="484" y="76" width="20" height="20" as="geometry" />
        </mxCell>
        <mxCell id="-aeHt35YVdPcneIBjBqU-14" value="" style="rounded=0;whiteSpace=wrap;html=1;fillColor=none;strokeColor=none;" vertex="1" parent="1">
          <mxGeometry x="644" y="283" width="20" height="20" as="geometry" />
        </mxCell>
      </root>
    </mxGraphModel>
  </diagram>
</mxfile>
